<?xml version="1.0" standalone="no"?>
<!DOCTYPE svg PUBLIC "-//W3C//DTD SVG 20010904//EN"
 "http://www.w3.org/TR/2001/REC-SVG-20010904/DTD/svg10.dtd">
<svg version="1.0" xmlns="http://www.w3.org/2000/svg"
 width="256.000000pt" height="256.000000pt" viewBox="0 0 256.000000 256.000000"
 preserveAspectRatio="xMidYMid meet">
<metadata>
Created by potrace 1.14, written by Peter Selinger 2001-2017
</metadata>
<g transform="translate(0.000000,256.000000) scale(0.100000,-0.100000)"
fill="#000000" stroke="none">
<path d="M807 2553 c-4 -3 -31 -5 -61 -4 -30 1 -57 -3 -61 -9 -3 -5 -21 -10
-40 -10 -19 0 -37 -4 -40 -10 -3 -5 -19 -10 -34 -10 -35 0 -91 -19 -91 -31 0
-5 -14 -9 -30 -9 -45 0 -81 -39 -71 -76 4 -17 3 -39 -2 -52 -8 -16 -7 -33 1
-56 7 -18 12 -43 12 -57 0 -13 6 -33 14 -44 7 -11 16 -37 20 -57 4 -21 14 -41
22 -46 8 -5 16 -19 17 -31 1 -13 16 -36 34 -52 18 -15 33 -34 33 -40 0 -15 47
-59 64 -59 7 0 19 -11 26 -25 7 -14 19 -25 27 -25 7 0 13 -4 13 -9 0 -5 8 -11
17 -13 12 -2 6 -10 -23 -29 -36 -24 -82 -67 -110 -102 -34 -41 -62 -123 -70
-206 -8 -77 -12 -86 -53 -116 -22 -17 -41 -36 -41 -42 0 -7 -4 -13 -10 -13 -5
0 -25 -33 -45 -74 -41 -86 -53 -167 -36 -246 12 -57 58 -160 71 -160 9 0 20
-28 55 -145 15 -49 33 -112 42 -140 29 -98 100 -184 199 -241 27 -15 85 -51
129 -79 44 -28 100 -60 125 -70 25 -11 65 -36 90 -56 52 -43 139 -93 147 -85
3 3 13 1 22 -4 29 -15 104 -20 146 -8 22 5 45 11 50 12 49 9 198 82 215 106 3
4 41 24 85 45 44 21 105 54 135 75 30 20 77 49 103 65 43 24 104 78 145 129
22 27 60 118 66 156 3 20 12 52 20 71 8 20 17 47 20 60 9 51 45 129 59 129 6
0 25 35 32 63 2 4 4 9 5 12 1 3 3 8 5 13 1 4 6 16 10 27 9 20 10 156 2 185
-21 77 -59 141 -122 206 -51 52 -61 67 -60 95 1 19 -3 52 -8 74 -5 22 -10 47
-12 55 -14 67 -89 163 -164 211 -29 19 -38 29 -27 29 10 0 33 15 50 33 17 17
43 38 58 46 15 8 30 22 34 33 3 10 21 33 39 51 19 17 36 42 38 55 2 13 8 27
13 30 16 12 55 112 59 152 1 14 8 38 14 55 8 19 9 37 3 50 -5 11 -7 36 -5 56
6 44 -25 79 -69 79 -15 0 -28 4 -28 8 0 10 -60 32 -88 32 -12 0 -30 4 -40 9
-22 12 -119 31 -152 30 -14 0 -45 1 -69 2 -24 1 -46 -3 -50 -9 -4 -6 -12 -7
-20 -3 -8 5 -28 4 -45 -1 -17 -6 -46 -12 -64 -14 -18 -2 -47 -13 -65 -26 -18
-13 -38 -22 -45 -20 -31 7 -152 -148 -152 -195 0 -28 -16 -10 -42 46 -26 54
-95 140 -115 142 -30 3 -49 10 -58 22 -11 14 -70 38 -78 31 -2 -2 -22 2 -45
10 -25 9 -44 11 -47 5 -4 -5 -14 -5 -26 2 -27 14 -64 21 -72 12z"/>
</g>
</svg>
